<?xml version="1.0" encoding="UTF-8" standalone="no"?> <svg xmlns="http://www.w3.org/2000/svg" version="1.0" width="454.000000pt" height="454.000000pt" viewBox="0 0 454.000000 454.000000" preserveAspectRatio="xMidYMid meet"><metadata> Created by potrace 1.16, written by Peter Selinger 2001-2019 </metadata><g transform="translate(0.000000,454.000000) scale(0.100000,-0.100000)" fill="#000000" stroke="none"><path d="M1402 2283 c-473 -824 -864 -1506 -867 -1515 -7 -17 80 -18 1735 -18 1655 0 1742 1 1735 18 -13 36 -1728 3012 -1735 3012 -4 0 -395 -674 -868 -1497z m1518 -141 c352 -613 640 -1118 640 -1123 0 -5 -525 -9 -1291 -9 -1082 0 -1290 2 -1287 14 6 28 1282 2236 1290 2234 4 -2 296 -504 648 -1116z"></path></g></svg> 