<?xml version="1.0" encoding="UTF-8" standalone="no"?> <svg xmlns="http://www.w3.org/2000/svg" version="1.0" width="454.000000pt" height="454.000000pt" viewBox="0 0 454.000000 454.000000" preserveAspectRatio="xMidYMid meet"><metadata> Created by potrace 1.16, written by Peter Selinger 2001-2019 </metadata><g transform="translate(0.000000,454.000000) scale(0.100000,-0.100000)" fill="#000000" stroke="none"><path d="M1397 2271 c-477 -829 -867 -1511 -867 -1515 0 -3 783 -6 1740 -6 957 0 1740 3 1740 7 0 10 -1734 3023 -1740 3023 -3 0 -396 -679 -873 -1509z m1021 741 c78 -136 142 -252 142 -257 0 -6 -224 -399 -498 -875 l-498 -865 -296 -3 -297 -2 197 342 c891 1551 1097 1908 1102 1908 3 0 70 -111 148 -248z m467 -813 c145 -251 166 -293 157 -312 -6 -12 -121 -213 -255 -447 l-245 -425 -341 -3 -341 -2 34 57 c18 32 208 362 421 733 213 371 389 678 392 683 2 4 6 7 8 7 2 0 78 -131 170 -291z m505 -878 l179 -311 -365 0 c-201 0 -363 3 -361 8 11 20 285 496 319 555 22 38 42 66 45 64 2 -3 85 -145 183 -316z"></path></g></svg> 