<?xml version="1.0" encoding="UTF-8" standalone="no"?> <svg xmlns="http://www.w3.org/2000/svg" version="1.0" width="454.000000pt" height="454.000000pt" viewBox="0 0 454.000000 454.000000" preserveAspectRatio="xMidYMid meet"><metadata> Created by potrace 1.16, written by Peter Selinger 2001-2019 </metadata><g transform="translate(0.000000,454.000000) scale(0.100000,-0.100000)" fill="#000000" stroke="none"><path d="M1976 3270 c-165 -286 -300 -520 -301 -520 -2 0 -249 173 -551 385 -301 211 -550 382 -553 380 -4 -2 -38 -49 -76 -105 -42 -61 -65 -104 -59 -108 116 -77 1104 -777 1104 -783 0 -4 -150 -269 -334 -589 l-335 -582 -212 -149 c-117 -82 -217 -153 -222 -158 -6 -6 18 -48 61 -111 69 -100 71 -103 57 -131 -8 -15 -15 -33 -15 -39 0 -7 532 -10 1741 -10 957 0 1739 3 1737 8 -2 4 -12 23 -22 43 l-19 37 67 95 c36 52 66 97 66 100 0 3 -96 73 -212 155 l-213 150 -185 324 c-102 177 -255 445 -341 595 l-156 272 545 383 c300 211 550 386 556 390 12 8 -127 214 -142 211 -6 -1 -252 -172 -548 -379 -507 -356 -538 -376 -551 -358 -8 10 -140 240 -295 509 -154 270 -284 493 -287 497 -4 4 -141 -226 -305 -512z m492 -331 c100 -174 182 -321 184 -327 2 -6 -84 -72 -190 -146 l-192 -136 -188 131 c-103 73 -188 133 -190 135 -2 1 84 153 190 338 106 184 195 332 199 328 3 -4 87 -149 187 -323z m518 -902 c105 -183 190 -334 188 -336 -3 -4 -661 457 -669 468 -5 9 277 210 285 204 3 -3 91 -154 196 -336z m-1085 236 c76 -53 136 -100 134 -104 -5 -7 -608 -432 -644 -454 -8 -4 1 19 20 52 193 340 345 602 348 603 1 0 65 -43 142 -97z m989 -694 l600 -421 40 -68 c22 -38 40 -71 40 -74 0 -3 -583 -6 -1296 -6 -713 0 -1294 4 -1292 8 2 5 23 42 46 83 l44 74 596 418 c328 229 602 415 609 413 7 -3 283 -195 613 -427z"></path></g></svg> 