<?xml version="1.0" encoding="UTF-8" standalone="no"?> <svg xmlns="http://www.w3.org/2000/svg" version="1.0" width="454.000000pt" height="454.000000pt" viewBox="0 0 454.000000 454.000000" preserveAspectRatio="xMidYMid meet"><metadata> Created by potrace 1.16, written by Peter Selinger 2001-2019 </metadata><g transform="translate(0.000000,454.000000) scale(0.100000,-0.100000)" fill="#000000" stroke="none"><path d="M850 2270 l0 -1420 1420 0 1420 0 0 1420 0 1420 -1420 0 -1420 0 0 -1420z m1229 1150 c-153 -26 -353 -109 -477 -196 -244 -175 -409 -427 -472 -724 l-19 -85 0 508 -1 507 508 -1 c279 -1 486 -5 461 -9z m1350 -497 l0 -508 -19 85 c-84 397 -350 711 -727 859 -54 21 -186 57 -238 64 -16 2 198 5 478 6 l507 1 -1 -507z m-1074 247 c331 -38 596 -226 734 -522 57 -122 72 -185 78 -339 4 -104 2 -155 -11 -217 -66 -324 -306 -587 -631 -689 -84 -26 -102 -28 -255 -28 -153 0 -171 2 -255 28 -325 102 -565 365 -631 689 -13 62 -15 113 -11 217 6 154 21 217 78 339 135 290 403 484 720 521 41 5 79 9 84 10 6 0 51 -4 100 -9z m-1184 -1275 c119 -340 377 -602 709 -719 41 -15 116 -35 165 -46 l90 -19 -512 0 -513 -1 1 513 c1 465 2 505 14 437 8 -42 28 -116 46 -165z m2259 -275 l0 -510 -512 1 -513 0 90 19 c426 90 753 383 884 792 17 54 34 122 37 153 4 30 8 55 10 55 2 0 4 -229 4 -510z"></path><path d="M2210 2433 c-61 -23 -110 -95 -110 -161 0 -59 38 -122 90 -149 55 -29 105 -29 160 0 120 63 117 243 -3 301 -34 15 -106 20 -137 9z"></path></g></svg> 