<?xml version="1.0" encoding="UTF-8" standalone="no"?> <svg xmlns="http://www.w3.org/2000/svg" version="1.0" width="454.000000pt" height="454.000000pt" viewBox="0 0 454.000000 454.000000" preserveAspectRatio="xMidYMid meet"><metadata> Created by potrace 1.16, written by Peter Selinger 2001-2019 </metadata><g transform="translate(0.000000,454.000000) scale(0.100000,-0.100000)" fill="#000000" stroke="none"><path d="M860 3554 l0 -136 -82 58 c-46 31 -110 77 -144 100 l-61 44 -68 -97 c-37 -53 -68 -102 -69 -109 0 -7 94 -80 209 -161 l210 -148 2 -835 3 -835 -215 -150 c-118 -82 -215 -153 -215 -157 0 -4 32 -53 71 -108 44 -63 75 -98 82 -93 7 4 69 46 138 95 70 48 129 88 133 88 3 0 6 -58 6 -130 l0 -130 1420 0 1419 0 3 126 3 125 110 -77 c61 -42 120 -83 131 -91 21 -13 25 -9 93 87 39 55 71 104 71 108 0 4 -93 71 -205 150 l-205 143 0 848 0 847 205 144 c132 92 204 148 201 157 -3 7 -35 56 -72 108 -44 62 -71 92 -78 86 -38 -29 -245 -171 -250 -171 -3 0 -7 55 -8 123 l-3 122 -1417 3 -1418 2 0 -136z m1212 -140 c-224 -40 -436 -150 -604 -312 l-67 -64 -140 98 -141 98 0 98 0 98 513 -1 c460 -1 505 -3 439 -15z m1366 -76 l-3 -92 -125 -89 c-173 -123 -157 -119 -221 -57 -176 169 -374 271 -614 315 -61 12 -6 13 448 14 l518 1 -3 -92z m-933 -193 c131 -36 328 -148 403 -228 l24 -25 -99 -69 c-54 -38 -199 -141 -323 -228 -124 -87 -232 -159 -240 -159 -12 0 -611 414 -645 446 -11 10 17 37 120 115 100 76 221 130 355 158 87 19 322 13 405 -10z m934 -477 l-1 -263 -17 80 c-22 100 -55 201 -93 283 -17 35 -28 65 -27 66 15 12 134 96 136 96 2 0 3 -118 2 -262z m-2196 162 c4 -4 -5 -36 -21 -71 -39 -86 -70 -182 -86 -265 -14 -66 -14 -59 -15 179 l-1 248 58 -42 c31 -23 61 -45 65 -49z m1877 -237 c48 -134 63 -228 57 -363 -5 -118 -28 -224 -67 -316 -12 -27 -23 -50 -25 -53 -5 -4 -585 401 -584 409 0 6 571 408 581 409 3 1 20 -38 38 -86z m-1360 -123 c154 -107 278 -198 277 -202 -3 -9 -557 -398 -567 -398 -11 0 -47 94 -69 180 -29 116 -35 229 -17 345 16 106 71 278 88 273 5 -2 135 -91 288 -198z m1678 -731 l-3 -130 -60 41 c-33 23 -63 45 -67 49 -4 4 10 48 32 98 39 92 71 197 87 289 7 40 9 25 11 -83 1 -73 1 -192 0 -264z m-837 139 l331 -233 -58 -53 c-107 -98 -262 -176 -409 -207 -100 -22 -275 -23 -370 -2 -155 33 -311 113 -430 221 -48 43 -49 45 -30 59 45 33 630 446 633 446 1 1 151 -104 333 -231z m-1430 33 c12 -36 35 -95 50 -130 16 -35 27 -66 24 -70 -2 -4 -31 -26 -64 -50 l-61 -42 1 243 c1 232 1 240 14 179 8 -35 24 -94 36 -130z m289 -467 c153 -156 357 -267 580 -314 l85 -19 -502 0 -503 -1 1 98 0 97 137 97 c75 53 139 97 142 97 3 1 30 -24 60 -55z m1836 -55 l144 -101 0 -89 0 -89 -507 1 -508 0 85 19 c220 47 405 144 570 298 36 34 67 61 69 62 2 0 68 -45 147 -101z"></path></g></svg> 