<?xml version="1.0" encoding="UTF-8" standalone="no"?> <svg xmlns="http://www.w3.org/2000/svg" version="1.0" width="454.000000pt" height="454.000000pt" viewBox="0 0 454.000000 454.000000" preserveAspectRatio="xMidYMid meet"><metadata> Created by potrace 1.16, written by Peter Selinger 2001-2019 </metadata><g transform="translate(0.000000,454.000000) scale(0.100000,-0.100000)" fill="#000000" stroke="none"><path d="M850 2270 l0 -1420 1420 0 1420 0 0 1420 0 1420 -1420 0 -1420 0 0 -1420z m2580 0 l0 -1160 -1160 0 -1160 0 0 1160 0 1160 1160 0 1160 0 0 -1160z"></path><path d="M1887 3173 c-4 -3 -7 -413 -7 -910 l0 -903 130 0 130 0 0 910 0 910 -123 0 c-68 0 -127 -3 -130 -7z"></path><path d="M2400 2270 l0 -910 130 0 130 0 -2 908 -3 907 -127 3 -128 3 0 -911z"></path></g></svg> 