<?xml version="1.0" encoding="UTF-8" standalone="no"?> <svg xmlns="http://www.w3.org/2000/svg" version="1.0" width="454.000000pt" height="454.000000pt" viewBox="0 0 454.000000 454.000000" preserveAspectRatio="xMidYMid meet"><metadata> Created by potrace 1.16, written by Peter Selinger 2001-2019 </metadata><g transform="translate(0.000000,454.000000) scale(0.100000,-0.100000)" fill="#000000" stroke="none"><path d="M850 2270 l0 -1420 1420 0 1420 0 0 1420 0 1420 -1420 0 -1420 0 0 -1420z m1180 1157 c0 -1 -207 -209 -460 -462 l-460 -460 0 463 0 462 460 0 c253 0 460 -1 460 -3z m1400 -1157 l0 -1160 -1160 0 -1160 0 0 518 0 517 515 515 515 515 0 -908 0 -907 130 0 130 0 0 910 0 910 -127 0 -128 0 125 125 125 125 517 0 518 0 0 -1160z"></path></g></svg> 