<?xml version="1.0" encoding="UTF-8" standalone="no"?> <svg xmlns="http://www.w3.org/2000/svg" version="1.0" width="454.000000pt" height="454.000000pt" viewBox="0 0 454.000000 454.000000" preserveAspectRatio="xMidYMid meet"><metadata> Created by potrace 1.16, written by Peter Selinger 2001-2019 </metadata><g transform="translate(0.000000,454.000000) scale(0.100000,-0.100000)" fill="#000000" stroke="none"><path d="M850 2270 l0 -1420 1420 0 1420 0 0 1420 0 1420 -1420 0 -1420 0 0 -1420z m1180 1157 c0 -1 -207 -209 -460 -462 l-460 -460 0 463 0 462 460 0 c253 0 460 -1 460 -3z m1400 -1157 l0 -1160 -1160 0 -1160 0 0 517 0 518 127 127 128 128 908 0 908 0 -3 128 -3 127 -775 3 -775 2 385 385 385 385 517 0 518 0 0 -1160z"></path><path d="M1367 2143 c-4 -3 -7 -62 -7 -130 l0 -123 910 0 911 0 -3 128 -3 127 -901 3 c-495 1 -904 -1 -907 -5z"></path></g></svg> 