<?xml version="1.0" encoding="UTF-8" standalone="no"?> <svg xmlns="http://www.w3.org/2000/svg" version="1.0" width="454.000000pt" height="454.000000pt" viewBox="0 0 454.000000 454.000000" preserveAspectRatio="xMidYMid meet"><metadata> Created by potrace 1.16, written by Peter Selinger 2001-2019 </metadata><g transform="translate(0.000000,454.000000) scale(0.100000,-0.100000)" fill="#000000" stroke="none"><path d="M1207 3683 c-4 -3 -7 -62 -7 -130 l0 -123 1110 0 c611 0 1110 -1 1110 -2 0 -2 60 -223 133 -493 l133 -490 -1096 -5 c-1081 -5 -1096 -6 -1170 -27 -247 -70 -383 -173 -548 -415 -69 -102 -712 -1134 -712 -1143 0 -3 950 -5 2110 -5 1161 0 2110 4 2110 8 0 5 -171 642 -380 1416 -209 773 -380 1409 -380 1411 0 8 -2406 6 -2413 -2z m2656 -1895 c59 -216 123 -455 143 -530 21 -76 35 -140 32 -143 -2 -3 -772 -4 -1710 -3 l-1705 3 233 374 c128 205 259 407 291 449 67 88 134 144 219 184 121 57 104 56 1295 57 l1096 1 106 -392z"></path><path d="M1775 1809 c-123 -38 -155 -208 -56 -292 89 -74 215 -47 262 57 43 94 9 183 -86 227 -44 20 -74 22 -120 8z"></path><path d="M2350 1798 c-108 -56 -131 -193 -45 -274 82 -77 211 -57 266 39 81 145 -74 311 -221 235z"></path><path d="M2966 1810 c-63 -19 -116 -95 -116 -165 0 -108 107 -193 210 -165 160 43 176 251 25 321 -43 20 -74 22 -119 9z"></path></g></svg> 