<?xml version="1.0" encoding="UTF-8" standalone="no"?> <svg xmlns="http://www.w3.org/2000/svg" version="1.0" width="454.000000pt" height="454.000000pt" viewBox="0 0 454.000000 454.000000" preserveAspectRatio="xMidYMid meet"><metadata> Created by potrace 1.16, written by Peter Selinger 2001-2019 </metadata><g transform="translate(0.000000,454.000000) scale(0.100000,-0.100000)" fill="#000000" stroke="none"><path d="M1202 3563 l3 -128 1107 -3 1107 -2 15 -53 c48 -166 246 -910 246 -922 0 -13 -135 -15 -1064 -15 -921 0 -1075 -2 -1146 -16 -103 -19 -204 -55 -283 -101 -91 -53 -238 -206 -329 -343 -80 -120 -687 -1096 -695 -1117 -4 -10 421 -13 2106 -13 1329 0 2111 4 2111 10 0 8 -725 2699 -752 2793 l-11 37 -1209 0 -1209 0 3 -127z m2558 -1387 c0 -2 63 -237 140 -522 77 -285 140 -524 140 -531 0 -11 -321 -13 -1711 -13 -1365 0 -1709 3 -1703 13 69 113 423 675 467 742 117 175 241 269 395 300 53 10 290 13 1170 14 606 1 1102 -1 1102 -3z"></path><path d="M2072 1813 c-38 -7 -99 -73 -111 -120 -38 -142 120 -264 248 -192 96 54 116 174 43 261 -42 50 -100 66 -180 51z"></path><path d="M2655 1806 c-70 -30 -115 -115 -101 -190 16 -87 87 -139 179 -133 94 6 148 60 154 154 3 47 -1 66 -19 97 -41 71 -139 104 -213 72z"></path></g></svg> 