<?xml version="1.0" encoding="UTF-8" standalone="no"?> <svg xmlns="http://www.w3.org/2000/svg" version="1.0" width="454.000000pt" height="454.000000pt" viewBox="0 0 454.000000 454.000000" preserveAspectRatio="xMidYMid meet"><metadata> Created by potrace 1.16, written by Peter Selinger 2001-2019 </metadata><g transform="translate(0.000000,454.000000) scale(0.100000,-0.100000)" fill="#000000" stroke="none"><path d="M1207 3683 c-4 -3 -7 -62 -7 -130 l0 -123 1109 0 c1048 0 1110 -1 1115 -17 21 -66 256 -948 256 -959 0 -11 -185 -14 -1092 -17 -1088 -3 -1093 -3 -1175 -25 -233 -62 -380 -177 -551 -431 -79 -116 -702 -1116 -702 -1126 0 -3 950 -5 2110 -5 1161 0 2110 4 2110 8 0 5 -171 642 -380 1416 -209 774 -380 1409 -380 1412 0 7 -2406 5 -2413 -3z m2562 -1545 c6 -24 72 -265 145 -535 l133 -493 -1714 0 -1713 0 23 38 c13 20 117 187 231 370 295 473 345 535 492 604 121 57 104 56 1295 57 l1096 1 12 -42z"></path><path d="M2350 1798 c-108 -55 -130 -187 -46 -272 68 -67 168 -66 237 3 86 85 64 218 -44 270 -55 27 -92 26 -147 -1z"></path></g></svg> 