<?xml version="1.0" encoding="UTF-8" standalone="no"?> <svg xmlns="http://www.w3.org/2000/svg" version="1.0" width="454.000000pt" height="454.000000pt" viewBox="0 0 454.000000 454.000000" preserveAspectRatio="xMidYMid meet"><metadata> Created by potrace 1.16, written by Peter Selinger 2001-2019 </metadata><g transform="translate(0.000000,454.000000) scale(0.100000,-0.100000)" fill="#000000" stroke="none"><path d="M1202 3563 l3 -128 1107 -3 1107 -2 16 -54 c33 -112 89 -60 -569 -522 -324 -228 -595 -414 -603 -414 -8 0 -382 258 -831 573 -450 316 -829 581 -843 590 l-25 17 -73 -106 c-43 -61 -69 -109 -63 -113 5 -3 314 -220 687 -481 l677 -475 -154 -7 c-184 -8 -273 -28 -408 -94 -82 -41 -108 -61 -195 -148 -72 -71 -126 -139 -186 -231 -100 -151 -689 -1100 -689 -1109 0 -3 950 -6 2110 -6 1258 0 2110 4 2110 9 0 5 -139 526 -310 1157 -170 632 -307 1151 -302 1155 4 3 80 57 170 119 89 62 162 117 162 122 0 10 -126 195 -138 202 -4 2 -67 -38 -140 -90 -82 -58 -134 -89 -137 -81 -2 6 -18 65 -36 130 l-31 117 -1210 0 -1209 0 3 -127z m2407 -830 c39 -148 71 -274 71 -280 0 -10 -101 -13 -472 -13 -303 0 -469 3 -462 10 15 15 778 550 785 550 3 0 38 -120 78 -267z m-1724 -568 c-511 -360 -1071 -752 -1073 -750 -5 4 254 412 316 499 70 97 142 162 224 203 97 48 178 61 378 62 153 0 173 -2 155 -14z m1875 11 c0 -2 59 -221 130 -486 72 -266 129 -484 127 -486 -3 -3 -1363 948 -1381 967 -6 5 206 9 557 9 312 0 567 -2 567 -4z m-779 -566 l705 -495 -707 -3 c-389 -1 -1030 -1 -1423 0 l-716 3 707 497 c390 274 713 496 719 495 6 -1 328 -225 715 -497z"></path></g></svg> 