<?xml version="1.0" encoding="UTF-8" standalone="no"?> <svg xmlns:dc="http://purl.org/dc/elements/1.1/" xmlns:cc="http://creativecommons.org/ns#" xmlns:rdf="http://www.w3.org/1999/02/22-rdf-syntax-ns#" xmlns:svg="http://www.w3.org/2000/svg" xmlns="http://www.w3.org/2000/svg" viewBox="0 0 604.71997 604.71997" height="604.71997" width="604.71997" xml:space="preserve" id="svg2" version="1.1"><metadata id="metadata8"></metadata><defs id="defs6"></defs><g transform="matrix(1.3333333,0,0,-1.3333333,0,604.72)" id="g10"><g transform="scale(0.1)" id="g12"><path id="path14" style="fill:#231f20;fill-opacity:1;fill-rule:nonzero;stroke:none" d="m 3857.46,2271.28 c 0,875.3 -712.11,1587.41 -1587.4,1587.41 -875.3,0 -1587.4,-712.11 -1587.4,-1587.41 0,-875.29 712.1,-1587.401 1587.4,-1587.401 875.29,0 1587.4,712.111 1587.4,1587.401 z m -255.12,0 C 3602.34,1536.66 3004.67,939 2270.06,939 1535.44,939 937.777,1536.66 937.777,2271.28 c 0,734.63 597.663,1332.29 1332.283,1332.29 734.61,0 1332.28,-597.66 1332.28,-1332.29 z m -597.58,206.69 c 0,190.91 -83.66,474.05 -521.24,474.05 H 1807.85 V 1420.49 h 268.12 v 587.73 h 407.55 c 437.58,-2.15 521.24,280.99 521.24,469.75 z m -268.13,2.15 c 0,-193.05 -148,-253.11 -268.12,-253.11 h -392.54 v 506.22 h 396.83 c 141.57,0 263.83,-51.48 263.83,-253.11"></path></g></g></svg> 