<?xml version="1.0" encoding="UTF-8" standalone="no"?> <svg xmlns:dc="http://purl.org/dc/elements/1.1/" xmlns:cc="http://creativecommons.org/ns#" xmlns:rdf="http://www.w3.org/1999/02/22-rdf-syntax-ns#" xmlns:svg="http://www.w3.org/2000/svg" xmlns="http://www.w3.org/2000/svg" viewBox="0 0 604.71997 604.71997" height="604.71997" width="604.71997" xml:space="preserve" id="svg2" version="1.1"><metadata id="metadata8"></metadata><defs id="defs6"></defs><g transform="matrix(1.3333333,0,0,-1.3333333,0,604.72)" id="g10"><g transform="scale(0.1)" id="g12"><path id="path14" style="fill:#231f20;fill-opacity:1;fill-rule:nonzero;stroke:none" d="m 3855.12,2522.83 c 0,875.29 -712.11,1587.4 -1587.41,1587.4 -875.29,0 -1587.394,-712.11 -1587.394,-1587.4 0,-875.3 712.104,-1587.4 1587.394,-1587.4 875.3,0 1587.41,712.1 1587.41,1587.4 z m -255.12,0 c 0,-734.62 -597.67,-1332.29 -1332.29,-1332.29 -734.62,0 -1332.276,597.67 -1332.276,1332.29 0,734.63 597.656,1332.29 1332.276,1332.29 734.62,0 1332.29,-597.66 1332.29,-1332.29 z m -597.58,206.69 c 0,190.9 -83.66,474.04 -521.24,474.04 H 1805.51 V 1672.03 h 268.12 v 587.73 h 407.55 c 437.58,-2.14 521.24,281 521.24,469.76 z m -268.13,2.14 c 0,-193.05 -148,-253.11 -268.12,-253.11 h -392.54 v 506.22 h 396.83 c 141.57,0 263.83,-51.48 263.83,-253.11 z M 3685.04,680.309 H 850.395 V 425.199 H 3685.04 v 255.11"></path></g></g></svg> 