<?xml version="1.0" encoding="UTF-8" standalone="no"?> <svg xmlns:dc="http://purl.org/dc/elements/1.1/" xmlns:cc="http://creativecommons.org/ns#" xmlns:rdf="http://www.w3.org/1999/02/22-rdf-syntax-ns#" xmlns:svg="http://www.w3.org/2000/svg" xmlns="http://www.w3.org/2000/svg" viewBox="0 0 604.71997 604.71997" height="604.71997" width="604.71997" xml:space="preserve" id="svg2" version="1.1"><metadata id="metadata8"></metadata><defs id="defs6"></defs><g transform="matrix(1.3333333,0,0,-1.3333333,0,604.72)" id="g10"><g transform="scale(0.1)" id="g12"><path id="path14" style="fill:#231f20;fill-opacity:1;fill-rule:nonzero;stroke:none" d="m 3857.46,2523.31 c 0,875.29 -712.11,1587.4 -1587.4,1587.4 -875.3,0 -1587.4,-712.11 -1587.4,-1587.4 0,-875.3 712.1,-1587.412 1587.4,-1587.412 875.29,0 1587.4,712.112 1587.4,1587.412 z m -255.12,0 c 0,-734.62 -597.66,-1332.29 -1332.28,-1332.29 -734.62,0 -1332.283,597.67 -1332.283,1332.29 0,734.62 597.663,1332.28 1332.283,1332.28 734.62,0 1332.28,-597.66 1332.28,-1332.28 z m -1526.37,449.47 h 789.37 v 231.66 H 1807.85 V 1672.91 h 268.12 v 679.97 h 692.84 v 218.79 H 2075.97 Z M 3687.38,680.789 H 852.738 V 425.672 H 3687.38 v 255.117"></path></g></g></svg> 