<?xml version="1.0" encoding="UTF-8" standalone="no"?> <svg xmlns:dc="http://purl.org/dc/elements/1.1/" xmlns:cc="http://creativecommons.org/ns#" xmlns:rdf="http://www.w3.org/1999/02/22-rdf-syntax-ns#" xmlns:svg="http://www.w3.org/2000/svg" xmlns="http://www.w3.org/2000/svg" viewBox="0 0 604.71997 604.71997" height="604.71997" width="604.71997" xml:space="preserve" id="svg2" version="1.1"><metadata id="metadata8"></metadata><defs id="defs6"></defs><g transform="matrix(1.3333333,0,0,-1.3333333,0,604.72)" id="g10"><g transform="scale(0.1)" id="g12"><path id="path14" style="fill:#231f20;fill-opacity:1;fill-rule:nonzero;stroke:none" d="m 3642.85,3077.85 469.73,329.71 -145.78,208.7 -470.98,-330.59 c -291.42,349.04 -729.59,571.53 -1218.78,571.53 -492.09,0 -932.58,-225.07 -1223.98,-577.68 L 573.316,3616.26 427.539,3407.56 907.133,3070.93 C 768.992,2835.62 689.641,2561.82 689.641,2269.79 c 0,-292.01 79.351,-565.81 217.488,-801.12 l -479.59,-336.63 145.777,-208.7 479.744,336.74 c 291.39,-352.611 731.89,-577.689 1223.98,-577.689 489.2,0 927.36,222.488 1218.78,571.539 l 470.98,-330.59 145.78,208.7 -469.73,329.7 c 140.67,236.86 221.59,513.16 221.59,808.05 0,294.9 -80.92,571.21 -221.59,808.06 z m -209.72,-1468.9 -941.52,660.85 941.52,660.85 c 111.86,-194.92 176.19,-420.45 176.19,-660.86 0,-240.4 -64.33,-465.92 -176.19,-660.84 z M 1262.82,1407.31 2270.06,2114.29 3285.98,1401.21 C 3041.47,1117.59 2680,937.512 2277.04,937.512 c -405.86,0 -769.66,182.638 -1014.22,469.798 z M 1116.93,2923.67 2048.5,2269.8 1116.93,1615.93 c -109.39,193.32 -172.172,416.34 -172.172,653.86 0,237.54 62.782,460.56 172.172,653.88 z m 2169.05,214.72 -1015.92,-713.08 -1007.24,706.98 c 244.56,287.16 608.36,469.8 1014.22,469.8 402.96,0 764.43,-180.08 1008.94,-463.7"></path></g></g></svg> 