<?xml version="1.0" encoding="UTF-8" standalone="no"?> <svg xmlns:dc="http://purl.org/dc/elements/1.1/" xmlns:cc="http://creativecommons.org/ns#" xmlns:rdf="http://www.w3.org/1999/02/22-rdf-syntax-ns#" xmlns:svg="http://www.w3.org/2000/svg" xmlns="http://www.w3.org/2000/svg" viewBox="0 0 604.71997 604.71997" height="604.71997" width="604.71997" xml:space="preserve" id="svg2" version="1.1"><metadata id="metadata8"></metadata><defs id="defs6"></defs><g transform="matrix(1.3333333,0,0,-1.3333333,0,604.72)" id="g10"><g transform="scale(0.1)" id="g12"><path id="path14" style="fill:#231f20;fill-opacity:1;fill-rule:nonzero;stroke:none" d="m 3857.46,2270.79 c 0,875.29 -712.11,1587.4 -1587.4,1587.4 -875.3,0 -1587.4,-712.11 -1587.4,-1587.4 0,-875.3 712.1,-1587.411 1587.4,-1587.411 875.29,0 1587.4,712.111 1587.4,1587.411 z m -255.12,0 c 0,-734.62 -597.67,-1332.29 -1332.28,-1332.29 -734.62,0 -1332.283,597.67 -1332.283,1332.29 0,734.62 597.663,1332.28 1332.283,1332.28 734.61,0 1332.28,-597.66 1332.28,-1332.28 z m -332.71,624.44 H 2997.21 L 2711.93,1724.06 h -4.29 l -300.3,1171.17 H 2132.78 L 1823.9,1724.06 h -4.29 L 1542.9,2895.23 H 1270.49 L 1673.75,1363.7 h 276.7 l 313.17,1171.17 h 4.29 L 2574.65,1363.7 h 272.41 l 422.57,1531.53"></path></g></g></svg> 