<?xml version="1.0" encoding="UTF-8" standalone="no"?> <svg xmlns:dc="http://purl.org/dc/elements/1.1/" xmlns:cc="http://creativecommons.org/ns#" xmlns:rdf="http://www.w3.org/1999/02/22-rdf-syntax-ns#" xmlns:svg="http://www.w3.org/2000/svg" xmlns="http://www.w3.org/2000/svg" viewBox="0 0 604.71997 604.71997" height="604.71997" width="604.71997" xml:space="preserve" id="svg2" version="1.1"><metadata id="metadata8"></metadata><defs id="defs6"></defs><g transform="matrix(1.3333333,0,0,-1.3333333,0,604.72)" id="g10"><g transform="scale(0.1)" id="g12"><path id="path14" style="fill:#231f20;fill-opacity:1;fill-rule:nonzero;stroke:none" d="m 3857.46,2525.4 c 0,875.3 -712.11,1587.41 -1587.4,1587.41 -875.3,0 -1587.4,-712.11 -1587.4,-1587.41 0,-875.29 712.1,-1587.4 1587.4,-1587.4 875.29,0 1587.4,712.11 1587.4,1587.4 z m -255.12,0 c 0,-734.61 -597.66,-1332.28 -1332.28,-1332.28 -734.62,0 -1332.283,597.67 -1332.283,1332.28 0,734.63 597.663,1332.3 1332.283,1332.3 734.62,0 1332.28,-597.67 1332.28,-1332.3 z m -332.71,624.45 H 2997.21 L 2711.93,1978.68 h -4.29 l -300.3,1171.17 H 2132.78 L 1823.9,1978.68 h -4.29 L 1542.9,3149.85 h -272.41 l 403.26,-1531.53 h 276.7 l 313.17,1171.17 h 4.29 l 306.74,-1171.17 h 272.41 z M 3687.38,682.891 H 852.738 V 427.77 H 3687.38 v 255.121"></path></g></g></svg> 