<?xml version="1.0" encoding="UTF-8" standalone="no"?> <svg xmlns:dc="http://purl.org/dc/elements/1.1/" xmlns:cc="http://creativecommons.org/ns#" xmlns:rdf="http://www.w3.org/1999/02/22-rdf-syntax-ns#" xmlns:svg="http://www.w3.org/2000/svg" xmlns="http://www.w3.org/2000/svg" viewBox="0 0 604.71997 604.71997" height="604.71997" width="604.71997" xml:space="preserve" id="svg2" version="1.1"><metadata id="metadata8"></metadata><defs id="defs6"></defs><g transform="matrix(1.3333333,0,0,-1.3333333,0,604.72)" id="g10"><g transform="scale(0.1)" id="g12"><path id="path14" style="fill:#231f20;fill-opacity:1;fill-rule:nonzero;stroke:none" d="m 3642.85,3080.45 469.73,329.7 -145.78,208.7 -470.98,-330.58 c -291.42,349.04 -729.59,571.53 -1218.78,571.53 -492.09,0 -932.58,-225.08 -1223.98,-577.68 L 573.316,3618.85 427.539,3410.15 907.133,3073.53 C 768.992,2838.21 689.641,2564.41 689.641,2272.39 c 0,-292.02 79.351,-565.82 217.488,-801.13 L 427.539,1134.64 573.316,925.941 1053.06,1262.67 c 291.39,-352.6 731.89,-577.678 1223.98,-577.678 489.2,0 927.36,222.488 1218.78,571.528 l 470.98,-330.579 145.78,208.699 -469.73,329.7 c 140.67,236.85 221.59,513.16 221.59,808.05 0,294.89 -80.92,571.2 -221.59,808.06 z m -209.72,-1468.91 -428.21,300.57 246.56,893.64 181.65,127.5 c 111.86,-194.93 176.19,-420.45 176.19,-660.86 0,-240.4 -64.33,-465.92 -176.19,-660.85 z m -2170.31,-201.64 342.81,240.62 75.1,-285.22 h 276.71 l 175.17,655.11 137.45,96.48 140.57,-98.67 171,-652.92 h 272.42 l 78.97,286.25 352.96,-247.74 C 3041.47,1120.19 2680,940.102 2277.04,940.102 c -405.86,0 -769.66,182.648 -1014.22,469.798 z m 1329.79,791.61 -30.81,120.15 364.63,255.94 -126.97,-521.28 z m 142.15,-410.8 -15.85,-65.05 h -4.29 l -24.76,96.57 z m -464.7,637.2 -23.98,16.83 24.53,91.73 h 4.29 l 23.26,-88.84 z m -522.7,-366.89 -119.74,506.79 358.92,-251.92 -28.15,-106.74 z m 110.37,-233.55 -26.85,-101.81 h -4.29 l -16.2,68.58 z m -740.8,1098.8 187.43,-131.56 232.15,-881.68 -419.58,-294.51 c -109.39,193.32 -172.172,416.34 -172.172,653.87 0,237.53 62.782,460.56 172.172,653.88 z m 2169.05,214.71 -791.76,-555.74 -79.9,311.59 h -274.56 l -84,-318.51 -792.94,556.57 c 244.56,287.15 608.36,469.79 1014.22,469.79 402.96,0 764.43,-180.08 1008.94,-463.7"></path></g></g></svg> 